<?xml version="1.0" encoding="UTF-8"?>
<!-- Generated by Pixelmator Pro 3.6.16 -->
<svg width="29" height="29" viewBox="0 0 29 29" xmlns="http://www.w3.org/2000/svg">
    <g id="Group" clip-path="url(#clipPath1)">
        <linearGradient id="linearGradient1" x1="1.484353" y1="23.563585" x2="21.377156" y2="10.068622" gradientUnits="userSpaceOnUse">
            <stop offset="1e-05" stop-color="#00bfea" stop-opacity="1"/>
            <stop offset="1" stop-color="#26d6ff" stop-opacity="1"/>
        </linearGradient>
        <path id="Path" fill="url(#linearGradient1)" stroke="none" d="M 28.477364 4.789177 L 28.477364 23.43277 C 28.477364 24.470934 27.585659 25.292828 26.552622 25.20631 L 15.113037 24.319555 C 13.764623 24.211407 12.416237 24.514191 11.241838 25.173866 L 7.294518 27.390757 C 6.946548 27.585423 6.565956 27.185303 6.783437 26.850044 L 8.762519 23.832916 L 10.600237 21.021215 C 10.796 20.71843 11.176593 20.577837 11.524563 20.685986 C 14.406193 21.615999 17.668444 20.545391 19.397451 17.906755 C 21.463526 14.738194 20.560978 10.499052 17.385719 8.444355 C 14.199585 6.378845 9.936919 7.28726 7.870844 10.444979 C 6.141837 13.09446 6.489837 16.490105 8.50154 18.728622 C 8.74077 18.998993 8.773393 19.399111 8.566786 19.701897 L 6.239704 23.270578 C 6.098341 23.476028 5.859111 23.594994 5.609008 23.584179 L 1.34635 23.259764 C 0.617781 23.205688 0.074074 22.621717 0.074074 21.907999 L 0.074074 6.303171 C 0.074074 5.600241 0.617781 5.005461 1.335475 4.951389 L 26.552622 3.004841 C 27.585659 2.929142 28.477364 3.751017 28.477364 4.789177 Z M 13.612385 9.504148 C 11.013482 9.504148 8.903881 11.602104 8.903881 14.186667 C 8.903881 15.441126 9.404089 16.587406 10.219644 17.430933 C 10.719881 17.939201 11.328829 18.339317 12.013897 18.58803 C 12.514104 18.771881 13.046934 18.869215 13.612385 18.869215 C 16.211319 18.869215 18.320889 16.771259 18.320889 14.186667 C 18.320889 11.591288 16.211319 9.504148 13.612385 9.504148 Z"/>
    </g>
</svg>
